<svg width="50" height="50" viewBox="0 0 50 50" fill="none" xmlns="http://www.w3.org/2000/svg" class="max-h-10 max-w-10"><path d="M42.4329 41.434L37 46.9391L37.0618 47C39.3092 45.6187 41.2164 43.8818 43.0824 42.0637C44.8969 40.1948 46.6392 38.2955 48 36.0609L47.9382 36L42.4329 41.4441V41.434Z" fill="currentColor"></path><path d="M20 11L30 0.632062L29.7048 0.316031L29.4 0L20 10.9796V11Z" fill="currentColor"></path><path d="M28.0102 10.9699L28 11L37 2.62276L36.6723 2.31138L36.3549 2L28.0205 10.9297L28.0102 10.9699Z" fill="currentColor"></path><path d="M33.0308 12.9296V12.9396L33 13L41 5.6239L40.682 5.31195L40.3538 5L33.0616 12.8591L33.0308 12.9296Z" fill="currentColor"></path><path d="M37.0402 16.9118L37 17L44 10.6078L43.6791 10.3039L43.3682 10L37.1003 16.8039L37.0402 16.9118Z" fill="currentColor"></path><path d="M39.0103 22.9697L39 23L48 14.627L47.349 14L39.0207 22.9292L39.0103 22.9697Z" fill="currentColor"></path><path d="M16.3591 16.355C17.1363 15.5768 18.967 13.7235 19.7341 12.9863C19.8773 12.3618 19.9795 11.6553 20 11C19.3455 11.0205 18.6499 11.1229 18.0159 11.2662C17.2693 12.0444 15.4387 13.8567 14.6512 14.645C13.9251 15.3822 11.9921 17.3174 11.2762 18.0239C11.1637 18.6587 11.0307 19.2833 11 20C11.7159 19.9693 12.3398 19.8464 12.9739 19.7235C13.6898 19.0068 15.6125 17.0819 16.3488 16.3447L16.3591 16.355Z" fill="currentColor"></path><path d="M13.8051 25.8083L15.8087 23.8059L23.8039 15.8156C24.4783 15.1514 25.1331 14.4774 25.8173 13.823C26.2473 12.9243 26.6579 12.0061 27 11C26.0031 11.3321 25.0745 11.7424 24.1753 12.1819C23.5302 12.8657 22.846 13.5201 22.1912 14.1941C20.1973 16.1868 16.19 20.1917 14.1863 22.1844L12.1826 24.1868C11.7526 25.0855 11.3323 26.0525 11 27C11.9481 26.6679 12.9157 26.2381 13.8149 25.8181L13.8051 25.8083Z" fill="currentColor"></path><path d="M14.5797 33.0665C16.3345 31.3033 21.0173 26.6348 22.8322 24.8215C24.7274 22.9381 29.2497 18.3898 31.0948 16.5865C31.7766 15.4344 32.4284 14.2523 33 13C31.7366 13.571 30.5634 14.2322 29.4102 14.9135C27.5752 16.7769 23.0729 21.255 21.1676 23.1685C19.3627 24.9617 14.6599 29.6703 12.9151 31.4135C12.2533 32.5656 11.5716 33.7878 11 35C12.2033 34.429 13.4366 33.7477 14.5898 33.0865L14.5797 33.0665Z" fill="currentColor"></path><path d="M26.8246 28.8148C28.7226 26.9268 33.2339 22.3758 35.0822 20.5772C35.7678 19.4246 36.4137 18.252 37 17C35.748 17.5763 34.5654 18.2322 33.4127 18.9178C31.5744 20.7859 27.0831 25.2674 25.1752 27.1752C23.3767 28.9738 18.6666 33.6838 16.9277 35.4228C16.2619 36.5754 15.5763 37.7977 15 39C16.2023 38.4237 17.4345 37.748 18.5772 37.0822C20.336 35.3234 25.0062 30.6531 26.8246 28.8347V28.8148Z" fill="currentColor"></path><path d="M36.0127 23.1884C35.3249 23.8744 34.6062 24.5217 33.8979 25.1981C31.7831 27.1884 27.5127 31.2077 25.398 33.1981L23.2729 35.1981C22.811 36.0966 22.3593 37.0628 22 38C23.006 37.6618 24.0326 37.2367 24.9771 36.8019L27.102 34.8019C29.2167 32.8116 33.4873 28.7923 35.602 26.8019C36.3103 26.1353 37.0084 25.4589 37.7372 24.8116C38.1992 23.913 38.6407 22.9952 39 22C37.9426 22.3382 36.9674 22.7536 36.0127 23.1884Z" fill="currentColor"></path><path d="M37.9793 31.2756C37.9793 31.2022 37.9688 31.1288 37.9583 31.0449C37.3084 30.9716 36.7632 31.003 36.218 31.0344C35.9455 31.3385 35.652 31.611 35.3584 31.9045C34.4988 32.7641 32.7584 34.5043 31.8988 35.3639L31.0287 36.2235C31.0077 36.7791 30.9763 37.3242 31.0287 37.9637C31.6682 38.0266 32.2134 37.9951 32.769 37.9637L33.6391 37.0936C34.4988 36.234 36.2391 34.4938 37.0987 33.6342C37.3923 33.3512 37.6648 33.0472 37.9688 32.7746C37.9898 32.3134 38.0213 31.8626 37.9793 31.3489C37.9793 31.3385 37.9793 31.3175 37.9793 31.307C37.9793 31.2965 37.9793 31.2756 37.9793 31.2651V31.2756Z" fill="currentColor"></path><path d="M38.0101 30.9408L38.0202 31L50 19.6113L49.3647 19L38 30.8915L38.0101 30.9408Z" fill="currentColor"></path><path d="M11 20.01L11.01 20L11 20.01Z" fill="currentColor"></path><path d="M0.34906 30.315L0.648149 30.6222L0.967324 30.9293L11.1188 20.3685L0.34906 30.315Z" fill="currentColor"></path><path d="M10.8194 28.2148L10.7795 28.2247L2.33319 35.7836L2.64226 36.1007L2.95145 36.4177L10.8493 28.195L10.8194 28.2148Z" fill="currentColor"></path><path d="M10.0623 36.0115L10.1021 35.9124L5.26569 40.3408L5.58486 40.6479L5.89393 40.9451L9.99244 36.1601L10.0623 36.0115Z" fill="currentColor"></path><path d="M13.961 39.9544L13.8514 40.0139H13.8414L13.6719 40.0931L9.07483 44.0955L9.3839 44.4125L9.70307 44.7196L13.961 39.9544Z" fill="currentColor"></path><path d="M21.5398 39.7563L21.5298 39.7662L21.5498 39.7068L13.7316 47.0478L14.0507 47.3549L14.3598 47.662L21.5995 39.7365L21.5398 39.7563Z" fill="currentColor"></path><path d="M30.8038 38.2703H30.7938L19.4456 49.0291L19.7547 49.3362L20.0738 49.6434L30.8137 38.2703H30.8038Z" fill="currentColor"></path><path d="M23.7336 0.0594388L23.6738 0C19.306 3.53675 15.2873 7.42025 11.3084 11.3632C7.42928 15.3061 3.45034 19.4571 0 23.7666C5.94336 18.2188 17.8501 5.9144 23.7436 0.0594388H23.7336Z" fill="currentColor"></path><path d="M50.0001 26.3622C44.0867 31.8803 32.2499 44.1252 26.3863 49.9405L26.4461 50C30.7939 46.483 34.7928 42.6293 38.7517 38.7062C42.6109 34.783 46.5697 30.6618 50.0001 26.3622Z" fill="currentColor"></path><path d="M2.79213 13.6021L8.11718 8.29205L13.3725 2.92253L13.3127 2.86308C11.1388 4.21042 9.29388 5.90449 7.48894 7.67782C5.73385 9.50069 4.04867 11.3533 2.73236 13.5328L2.79213 13.5922V13.6021Z" fill="currentColor"></path></svg>